<mxfile host="app.diagrams.net" modified="2023-09-25T02:27:57.332Z" agent="Mozilla/5.0 (Macintosh; Intel Mac OS X 10_15_7) AppleWebKit/605.1.15 (KHTML, like Gecko) Version/16.5.2 Safari/605.1.15" version="21.8.2" etag="X1TXrHm83tWXdQSLXwFP" type="github">
  <diagram name="Page-1" id="YZmESO4zA6YEITBIffrl">
    <mxGraphModel>
      <root>
        <mxCell id="0" />
        <mxCell id="1" parent="0" />
      </root>
    </mxGraphModel>
  </diagram>
</mxfile>
